<?xml version="1.0" encoding="UTF-8"?>
<svg width="16px" height="16px" viewBox="0 0 16 16" version="1.1" xmlns="http://www.w3.org/2000/svg" xmlns:xlink="http://www.w3.org/1999/xlink">
    <!-- Generator: Sketch 52.2 (67145) - http://www.bohemiancoding.com/sketch -->
    <title>snowflake</title>
    <desc>Created with Sketch.</desc>
    <g id="Screens" stroke="none" stroke-width="1" fill="none" fill-rule="evenodd">
        <g id="home__desktop" transform="translate(-515.000000, -1591.000000)" fill="#797979" fill-rule="nonzero">
            <g id="footer" transform="translate(330.000000, 1573.000000)">
                <polygon id="snowflake" points="201 25.1999944 197.664003 25.1999944 200.256001 22.6039839 199.123989 21.4759848 195.399979 25.1999944 193.800006 25.1999944 193.800006 23.5999831 197.523978 19.876011 196.395979 18.7439994 193.800006 21.3359974 193.800006 18 192.199994 18 192.199994 21.3359974 189.603984 18.7439994 188.475985 19.876011 192.199994 23.5999831 192.199994 25.1999944 190.599983 25.1999944 186.876011 21.4759848 185.743999 22.6039839 188.335997 25.1999944 185 25.1999944 185 26.8000056 188.335997 26.8000056 185.743999 29.3959786 186.876011 30.5239777 190.599983 26.8000056 192.199994 26.8000056 192.199994 28.3999794 188.475985 32.123989 189.603984 33.2560006 192.199994 30.6640026 192.199994 34 193.800006 34 193.800006 30.6640026 196.395979 33.2560006 197.523978 32.123989 193.800006 28.3999794 193.800006 26.8000056 195.399979 26.8000056 199.123989 30.5239777 200.256001 29.3959786 197.664003 26.8000056 201 26.8000056"></polygon>
            </g>
        </g>
    </g>
</svg>